<svg xmlns="http://www.w3.org/2000/svg" width="960" height="280" viewBox="0 0 960 280" role="img" aria-label="GodeX logo">


<g transform="translate(16,12) scale(0.92)">

<g fill="none" stroke="#FFFFFF" stroke-linecap="round" stroke-linejoin="round">
  <path d="M178 38 L137 62 Q130 66 130 76 L130 180 Q130 190 137 194 L178 218" stroke-width="14"/>
  <path d="M242 38 L283 62 Q290 66 290 76 L290 180 Q290 190 283 194 L242 218" stroke-width="14"/>
  <path d="M173 88 L247 168" stroke-width="17"/>
  <path d="M247 88 L173 168" stroke-width="17"/>
</g>
<g fill="none" stroke="#FFFFFF" stroke-width="4" stroke-linecap="round" opacity="0.96">
  <path d="M74 88 H130"/>
  <path d="M96 128 H130" stroke-dasharray="6 8"/>
  <path d="M74 168 H130"/>
  <path d="M290 88 H346"/>
  <path d="M290 128 H324" stroke-dasharray="6 8"/>
  <path d="M290 168 H346"/>
  <circle cx="70" cy="88" r="7"/>
  <circle cx="70" cy="168" r="7"/>
  <circle cx="350" cy="88" r="7"/>
  <circle cx="350" cy="168" r="7"/>
</g>
<text x="16" y="140" font-family="Noto Sans Display, Noto Sans, DejaVu Sans, Arial, sans-serif" font-size="38" font-weight="800" fill="#FFFFFF">&lt;/&gt;</text>
</g>
<text x="375" y="150" font-family="Noto Sans Display, Noto Sans, DejaVu Sans, Arial, sans-serif" font-size="112" font-weight="900" letter-spacing="2"><tspan fill="#FFFFFF">Gode</tspan><tspan fill="#FFFFFF">X</tspan></text>
<text x="380" y="207" font-family="Noto Sans Display, Noto Sans, DejaVu Sans, Arial, sans-serif" font-size="15" font-weight="600" letter-spacing="2.4" fill="#FFFFFF" textLength="430" lengthAdjust="spacingAndGlyphs">OPENAI-COMPATIBLE RESPONSES API GATEWAY</text>
</svg>